<svg viewBox="-50 -150 300 200" xmlns="http://www.w3.org/2000/svg">
<line x1="0" y1="0" x2="10.0" y2="0.0" stroke="black"/>
<line x1="10.0" y1="0.0" x2="10.0" y2="10.0" stroke="black"/>
<line x1="10.0" y1="10.0" x2="20.0" y2="10.0" stroke="black"/>
<line x1="20.0" y1="10.0" x2="20.0" y2="0.0" stroke="black"/>
<line x1="20.0" y1="0.0" x2="20.0" y2="-10.0" stroke="black"/>
<line x1="20.0" y1="-10.0" x2="30.0" y2="-10.0" stroke="black"/>
<line x1="30.0" y1="-10.0" x2="30.0" y2="0.0" stroke="black"/>
<line x1="30.0" y1="0.0" x2="40.0" y2="0.0" stroke="black"/>
<line x1="40.0" y1="0.0" x2="40.0" y2="10.0" stroke="black"/>
<line x1="40.0" y1="10.0" x2="30.0" y2="10.000000000000002" stroke="black"/>
<line x1="30.0" y1="10.000000000000002" x2="30.0" y2="20.0" stroke="black"/>
<line x1="30.0" y1="20.0" x2="40.0" y2="20.0" stroke="black"/>
<line x1="40.0" y1="20.0" x2="50.0" y2="20.0" stroke="black"/>
<line x1="50.0" y1="20.0" x2="50.0" y2="30.0" stroke="black"/>
<line x1="50.0" y1="30.0" x2="40.0" y2="30.0" stroke="black"/>
<line x1="40.0" y1="30.0" x2="40.0" y2="40.0" stroke="black"/>
<line x1="40.0" y1="40.0" x2="50.0" y2="40.0" stroke="black"/>
<line x1="50.0" y1="40.0" x2="50.0" y2="50.0" stroke="black"/>
<line x1="50.0" y1="50.0" x2="60.0" y2="50.0" stroke="black"/>
<line x1="60.0" y1="50.0" x2="60.0" y2="40.0" stroke="black"/>
<line x1="60.0" y1="40.0" x2="60.0" y2="30.0" stroke="black"/>
<line x1="60.0" y1="30.0" x2="70.0" y2="30.0" stroke="black"/>
<line x1="70.0" y1="30.0" x2="70.0" y2="40.0" stroke="black"/>
<line x1="70.0" y1="40.0" x2="80.0" y2="40.0" stroke="black"/>
<line x1="80.0" y1="40.0" x2="80.0" y2="30.0" stroke="black"/>
<line x1="80.0" y1="30.0" x2="90.0" y2="30.0" stroke="black"/>
<line x1="90.0" y1="30.0" x2="90.0" y2="20.0" stroke="black"/>
<line x1="90.0" y1="20.0" x2="80.0" y2="20.0" stroke="black"/>
<line x1="80.0" y1="20.0" x2="70.0" y2="20.0" stroke="black"/>
<line x1="70.0" y1="20.0" x2="70.0" y2="10.0" stroke="black"/>
<line x1="70.0" y1="10.0" x2="80.0" y2="10.0" stroke="black"/>
<line x1="80.0" y1="10.0" x2="80.0" y2="0.0" stroke="black"/>
<line x1="80.0" y1="0.0" x2="80.0" y2="-10.0" stroke="black"/>
<line x1="80.0" y1="-10.0" x2="90.0" y2="-10.0" stroke="black"/>
<line x1="90.0" y1="-10.0" x2="90.0" y2="-20.0" stroke="black"/>
<line x1="90.0" y1="-20.0" x2="80.0" y2="-20.0" stroke="black"/>
<line x1="80.0" y1="-20.0" x2="70.0" y2="-20.0" stroke="black"/>
<line x1="70.0" y1="-20.0" x2="70.0" y2="-30.0" stroke="black"/>
<line x1="70.0" y1="-30.0" x2="80.0" y2="-30.0" stroke="black"/>
<line x1="80.0" y1="-30.0" x2="80.0" y2="-40.0" stroke="black"/>
<line x1="80.0" y1="-40.0" x2="90.0" y2="-40.0" stroke="black"/>
<line x1="90.0" y1="-40.0" x2="90.0" y2="-30.0" stroke="black"/>
<line x1="90.0" y1="-30.0" x2="100.0" y2="-30.0" stroke="black"/>
<line x1="100.0" y1="-30.0" x2="100.0" y2="-40.0" stroke="black"/>
<line x1="100.0" y1="-40.0" x2="100.0" y2="-50.0" stroke="black"/>
<line x1="100.0" y1="-50.0" x2="110.0" y2="-50.0" stroke="black"/>
<line x1="110.0" y1="-50.0" x2="110.0" y2="-40.0" stroke="black"/>
<line x1="110.0" y1="-40.0" x2="120.0" y2="-40.0" stroke="black"/>
<line x1="120.0" y1="-40.0" x2="120.0" y2="-30.0" stroke="black"/>
<line x1="120.0" y1="-30.0" x2="110.0" y2="-30.0" stroke="black"/>
<line x1="110.0" y1="-30.0" x2="110.0" y2="-20.0" stroke="black"/>
<line x1="110.0" y1="-20.0" x2="120.0" y2="-20.0" stroke="black"/>
<line x1="120.0" y1="-20.0" x2="130.0" y2="-20.0" stroke="black"/>
<line x1="130.0" y1="-20.0" x2="130.0" y2="-10.0" stroke="black"/>
<line x1="130.0" y1="-10.0" x2="120.0" y2="-9.999999999999998" stroke="black"/>
<line x1="120.0" y1="-9.999999999999998" x2="120.0" y2="1.7763568394002505E-15" stroke="black"/>
<line x1="120.0" y1="1.7763568394002505E-15" x2="130.0" y2="1.7763568394002505E-15" stroke="black"/>
<line x1="130.0" y1="1.7763568394002505E-15" x2="130.0" y2="10.000000000000002" stroke="black"/>
<line x1="130.0" y1="10.000000000000002" x2="140.0" y2="10.000000000000002" stroke="black"/>
<line x1="140.0" y1="10.000000000000002" x2="140.0" y2="1.7763568394002505E-15" stroke="black"/>
<line x1="140.0" y1="1.7763568394002505E-15" x2="140.0" y2="-9.999999999999998" stroke="black"/>
<line x1="140.0" y1="-9.999999999999998" x2="150.0" y2="-9.999999999999998" stroke="black"/>
<line x1="150.0" y1="-9.999999999999998" x2="150.0" y2="1.7763568394002505E-15" stroke="black"/>
<line x1="150.0" y1="1.7763568394002505E-15" x2="160.0" y2="1.7763568394002505E-15" stroke="black"/>
<line x1="160.0" y1="1.7763568394002505E-15" x2="160.0" y2="10.000000000000002" stroke="black"/>
<line x1="160.0" y1="10.000000000000002" x2="150.0" y2="10.000000000000004" stroke="black"/>
<line x1="150.0" y1="10.000000000000004" x2="150.0" y2="20.000000000000004" stroke="black"/>
<line x1="150.0" y1="20.000000000000004" x2="160.0" y2="20.000000000000004" stroke="black"/>
<line x1="160.0" y1="20.000000000000004" x2="170.0" y2="20.000000000000004" stroke="black"/>
<line x1="170.0" y1="20.000000000000004" x2="170.0" y2="30.000000000000004" stroke="black"/>
<line x1="170.0" y1="30.000000000000004" x2="160.0" y2="30.000000000000004" stroke="black"/>
<line x1="160.0" y1="30.000000000000004" x2="160.0" y2="40.0" stroke="black"/>
<line x1="160.0" y1="40.0" x2="150.0" y2="40.0" stroke="black"/>
<line x1="150.0" y1="40.0" x2="150.0" y2="30.0" stroke="black"/>
<line x1="150.0" y1="30.0" x2="140.0" y2="30.0" stroke="black"/>
<line x1="140.0" y1="30.0" x2="140.0" y2="40.0" stroke="black"/>
<line x1="140.0" y1="40.0" x2="140.0" y2="50.0" stroke="black"/>
<line x1="140.0" y1="50.0" x2="130.0" y2="50.0" stroke="black"/>
<line x1="130.0" y1="50.0" x2="130.0" y2="40.0" stroke="black"/>
<line x1="130.0" y1="40.0" x2="120.0" y2="40.0" stroke="black"/>
<line x1="120.0" y1="40.0" x2="120.0" y2="50.0" stroke="black"/>
<line x1="120.0" y1="50.0" x2="110.0" y2="50.0" stroke="black"/>
<line x1="110.0" y1="50.0" x2="110.0" y2="60.0" stroke="black"/>
<line x1="110.0" y1="60.0" x2="120.0" y2="60.0" stroke="black"/>
<line x1="120.0" y1="60.0" x2="130.0" y2="60.0" stroke="black"/>
<line x1="130.0" y1="60.0" x2="130.0" y2="70.0" stroke="black"/>
<line x1="130.0" y1="70.0" x2="120.0" y2="70.0" stroke="black"/>
<line x1="120.0" y1="70.0" x2="120.0" y2="80.0" stroke="black"/>
<line x1="120.0" y1="80.0" x2="130.0" y2="80.0" stroke="black"/>
<line x1="130.0" y1="80.0" x2="130.0" y2="90.0" stroke="black"/>
<line x1="130.0" y1="90.0" x2="140.0" y2="90.0" stroke="black"/>
<line x1="140.0" y1="90.0" x2="140.0" y2="80.0" stroke="black"/>
<line x1="140.0" y1="80.0" x2="140.0" y2="70.0" stroke="black"/>
<line x1="140.0" y1="70.0" x2="150.0" y2="70.0" stroke="black"/>
<line x1="150.0" y1="70.0" x2="150.0" y2="80.0" stroke="black"/>
<line x1="150.0" y1="80.0" x2="160.0" y2="80.0" stroke="black"/>
<line x1="160.0" y1="80.0" x2="170.0" y2="80.0" stroke="black"/>
<line x1="170.0" y1="80.0" x2="170.0" y2="90.0" stroke="black"/>
<line x1="170.0" y1="90.0" x2="180.0" y2="90.0" stroke="black"/>
<line x1="180.0" y1="90.0" x2="180.0" y2="80.0" stroke="black"/>
<line x1="180.0" y1="80.0" x2="180.0" y2="70.0" stroke="black"/>
<line x1="180.0" y1="70.0" x2="190.0" y2="70.0" stroke="black"/>
<line x1="190.0" y1="70.0" x2="190.0" y2="80.0" stroke="black"/>
<line x1="190.0" y1="80.0" x2="200.0" y2="80.0" stroke="black"/>
<line x1="200.0" y1="80.0" x2="200.0" y2="90.0" stroke="black"/>
<line x1="200.0" y1="90.0" x2="190.0" y2="90.0" stroke="black"/>
<line x1="190.0" y1="90.0" x2="190.0" y2="100.0" stroke="black"/>
<line x1="190.0" y1="100.0" x2="200.0" y2="100.0" stroke="black"/>
<line x1="200.0" y1="100.0" x2="210.0" y2="100.0" stroke="black"/>
<line x1="210.0" y1="100.0" x2="210.0" y2="110.0" stroke="black"/>
<line x1="210.0" y1="110.0" x2="200.0" y2="110.0" stroke="black"/>
<line x1="200.0" y1="110.0" x2="200.0" y2="120.0" stroke="black"/>
<line x1="200.0" y1="120.0" x2="190.0" y2="120.0" stroke="black"/>
<line x1="190.0" y1="120.0" x2="190.0" y2="110.0" stroke="black"/>
<line x1="190.0" y1="110.0" x2="180.0" y2="110.0" stroke="black"/>
<line x1="180.0" y1="110.0" x2="180.0" y2="120.0" stroke="black"/>
<line x1="180.0" y1="120.0" x2="180.0" y2="130.0" stroke="black"/>
<line x1="180.0" y1="130.0" x2="170.0" y2="130.0" stroke="black"/>
<line x1="170.0" y1="130.0" x2="170.0" y2="120.0" stroke="black"/>
<line x1="170.0" y1="120.0" x2="160.0" y2="120.0" stroke="black"/>
<line x1="160.0" y1="120.0" x2="160.0" y2="130.0" stroke="black"/>
<line x1="160.0" y1="130.0" x2="150.0" y2="130.0" stroke="black"/>
<line x1="150.0" y1="130.0" x2="150.0" y2="140.0" stroke="black"/>
<line x1="150.0" y1="140.0" x2="160.0" y2="140.0" stroke="black"/>
<line x1="160.0" y1="140.0" x2="170.0" y2="140.0" stroke="black"/>
<line x1="170.0" y1="140.0" x2="170.0" y2="150.0" stroke="black"/>
<line x1="170.0" y1="150.0" x2="160.0" y2="150.0" stroke="black"/>
<line x1="160.0" y1="150.0" x2="160.0" y2="160.0" stroke="black"/>
<line x1="160.0" y1="160.0" x2="150.0" y2="160.0" stroke="black"/>
<line x1="150.0" y1="160.0" x2="150.0" y2="150.0" stroke="black"/>
<line x1="150.0" y1="150.0" x2="140.0" y2="150.0" stroke="black"/>
<line x1="140.0" y1="150.0" x2="140.0" y2="160.0" stroke="black"/>
<line x1="140.0" y1="160.0" x2="140.0" y2="170.0" stroke="black"/>
<line x1="140.0" y1="170.0" x2="130.0" y2="170.0" stroke="black"/>
<line x1="130.0" y1="170.0" x2="130.0" y2="160.0" stroke="black"/>
<line x1="130.0" y1="160.0" x2="120.0" y2="160.0" stroke="black"/>
<line x1="120.0" y1="160.0" x2="120.0" y2="150.0" stroke="black"/>
<line x1="120.0" y1="150.0" x2="130.0" y2="150.0" stroke="black"/>
<line x1="130.0" y1="150.0" x2="130.0" y2="140.0" stroke="black"/>
<line x1="130.0" y1="140.0" x2="120.0" y2="140.0" stroke="black"/>
<line x1="120.0" y1="140.0" x2="110.0" y2="140.0" stroke="black"/>
<line x1="110.0" y1="140.0" x2="110.0" y2="130.0" stroke="black"/>
<line x1="110.0" y1="130.0" x2="120.0" y2="130.0" stroke="black"/>
<line x1="120.0" y1="130.0" x2="120.0" y2="120.0" stroke="black"/>
<line x1="120.0" y1="120.0" x2="110.0" y2="120.0" stroke="black"/>
<line x1="110.0" y1="120.0" x2="110.0" y2="110.0" stroke="black"/>
<line x1="110.0" y1="110.0" x2="100.0" y2="110.0" stroke="black"/>
<line x1="100.0" y1="110.0" x2="100.0" y2="120.0" stroke="black"/>
<line x1="100.0" y1="120.0" x2="100.0" y2="130.0" stroke="black"/>
<line x1="100.0" y1="130.0" x2="90.0" y2="130.0" stroke="black"/>
<line x1="90.0" y1="130.0" x2="90.0" y2="120.0" stroke="black"/>
<line x1="90.0" y1="120.0" x2="80.0" y2="120.0" stroke="black"/>
<line x1="80.0" y1="120.0" x2="80.0" y2="130.0" stroke="black"/>
<line x1="80.0" y1="130.0" x2="70.0" y2="130.0" stroke="black"/>
<line x1="70.0" y1="130.0" x2="70.0" y2="140.0" stroke="black"/>
<line x1="70.0" y1="140.0" x2="80.0" y2="140.0" stroke="black"/>
<line x1="80.0" y1="140.0" x2="90.0" y2="140.0" stroke="black"/>
<line x1="90.0" y1="140.0" x2="90.0" y2="150.0" stroke="black"/>
<line x1="90.0" y1="150.0" x2="80.0" y2="150.0" stroke="black"/>
<line x1="80.0" y1="150.0" x2="80.0" y2="160.0" stroke="black"/>
<line x1="80.0" y1="160.0" x2="80.0" y2="170.0" stroke="black"/>
<line x1="80.0" y1="170.0" x2="70.0" y2="170.0" stroke="black"/>
<line x1="70.0" y1="170.0" x2="70.0" y2="180.0" stroke="black"/>
<line x1="70.0" y1="180.0" x2="80.0" y2="180.0" stroke="black"/>
<line x1="80.0" y1="180.0" x2="90.0" y2="180.0" stroke="black"/>
<line x1="90.0" y1="180.0" x2="90.0" y2="190.0" stroke="black"/>
<line x1="90.0" y1="190.0" x2="80.0" y2="190.0" stroke="black"/>
<line x1="80.0" y1="190.0" x2="80.0" y2="200.0" stroke="black"/>
<line x1="80.0" y1="200.0" x2="70.0" y2="200.0" stroke="black"/>
<line x1="70.0" y1="200.0" x2="70.0" y2="190.0" stroke="black"/>
<line x1="70.0" y1="190.0" x2="60.0" y2="190.0" stroke="black"/>
<line x1="60.0" y1="190.0" x2="60.0" y2="200.0" stroke="black"/>
<line x1="60.0" y1="200.0" x2="60.0" y2="210.0" stroke="black"/>
<line x1="60.0" y1="210.0" x2="50.0" y2="210.0" stroke="black"/>
<line x1="50.0" y1="210.0" x2="50.0" y2="200.0" stroke="black"/>
<line x1="50.0" y1="200.0" x2="40.0" y2="200.0" stroke="black"/>
<line x1="40.0" y1="200.0" x2="40.0" y2="190.0" stroke="black"/>
<line x1="40.0" y1="190.0" x2="50.0" y2="190.0" stroke="black"/>
<line x1="50.0" y1="190.0" x2="50.0" y2="180.0" stroke="black"/>
<line x1="50.0" y1="180.0" x2="40.0" y2="180.0" stroke="black"/>
<line x1="40.0" y1="180.0" x2="30.0" y2="180.0" stroke="black"/>
<line x1="30.0" y1="180.0" x2="29.999999999999996" y2="170.0" stroke="black"/>
<line x1="29.999999999999996" y1="170.0" x2="40.0" y2="170.0" stroke="black"/>
<line x1="40.0" y1="170.0" x2="40.0" y2="160.0" stroke="black"/>
<line x1="40.0" y1="160.0" x2="30.0" y2="160.0" stroke="black"/>
<line x1="30.0" y1="160.0" x2="29.999999999999996" y2="150.0" stroke="black"/>
<line x1="29.999999999999996" y1="150.0" x2="19.999999999999996" y2="150.0" stroke="black"/>
<line x1="19.999999999999996" y1="150.0" x2="19.999999999999996" y2="160.0" stroke="black"/>
<line x1="19.999999999999996" y1="160.0" x2="19.999999999999996" y2="170.0" stroke="black"/>
<line x1="19.999999999999996" y1="170.0" x2="9.999999999999996" y2="170.0" stroke="black"/>
<line x1="9.999999999999996" y1="170.0" x2="9.999999999999995" y2="160.0" stroke="black"/>
<line x1="9.999999999999995" y1="160.0" x2="-5.329070518200751E-15" y2="160.0" stroke="black"/>
<line x1="-5.329070518200751E-15" y1="160.0" x2="-7.166040716921782E-15" y2="150.0" stroke="black"/>
<line x1="-7.166040716921782E-15" y1="150.0" x2="9.999999999999993" y2="150.0" stroke="black"/>
<line x1="9.999999999999993" y1="150.0" x2="9.999999999999991" y2="140.0" stroke="black"/>
<line x1="9.999999999999991" y1="140.0" x2="-8.881784197001252E-15" y2="140.0" stroke="black"/>
<line x1="-8.881784197001252E-15" y1="140.0" x2="-10.000000000000009" y2="140.0" stroke="black"/>
<line x1="-10.000000000000009" y1="140.0" x2="-10.00000000000001" y2="130.0" stroke="black"/>
<line x1="-10.00000000000001" y1="130.0" x2="-1.0658141036401503E-14" y2="130.0" stroke="black"/>
<line x1="-1.0658141036401503E-14" y1="130.0" x2="-1.2495111235122533E-14" y2="120.0" stroke="black"/>
<line x1="-1.2495111235122533E-14" y1="120.0" x2="9.999999999999988" y2="120.0" stroke="black"/>
<line x1="9.999999999999988" y1="120.0" x2="9.999999999999991" y2="130.0" stroke="black"/>
<line x1="9.999999999999991" y1="130.0" x2="19.999999999999993" y2="130.0" stroke="black"/>
<line x1="19.999999999999993" y1="130.0" x2="19.99999999999999" y2="120.0" stroke="black"/>
<line x1="19.99999999999999" y1="120.0" x2="19.999999999999986" y2="110.0" stroke="black"/>
<line x1="19.999999999999986" y1="110.0" x2="29.999999999999986" y2="110.0" stroke="black"/>
<line x1="29.999999999999986" y1="110.0" x2="29.99999999999999" y2="120.0" stroke="black"/>
<line x1="29.99999999999999" y1="120.0" x2="39.999999999999986" y2="120.0" stroke="black"/>
<line x1="39.999999999999986" y1="120.0" x2="39.999999999999986" y2="110.0" stroke="black"/>
<line x1="39.999999999999986" y1="110.0" x2="49.999999999999986" y2="110.0" stroke="black"/>
<line x1="49.999999999999986" y1="110.0" x2="49.999999999999986" y2="100.0" stroke="black"/>
<line x1="49.999999999999986" y1="100.0" x2="39.999999999999986" y2="100.0" stroke="black"/>
<line x1="39.999999999999986" y1="100.0" x2="29.999999999999986" y2="100.0" stroke="black"/>
<line x1="29.999999999999986" y1="100.0" x2="29.999999999999982" y2="90.0" stroke="black"/>
<line x1="29.999999999999982" y1="90.0" x2="39.999999999999986" y2="90.0" stroke="black"/>
<line x1="39.999999999999986" y1="90.0" x2="39.999999999999986" y2="80.0" stroke="black"/>
<line x1="39.999999999999986" y1="80.0" x2="29.999999999999986" y2="80.0" stroke="black"/>
<line x1="29.999999999999986" y1="80.0" x2="29.999999999999982" y2="70.0" stroke="black"/>
<line x1="29.999999999999982" y1="70.0" x2="19.999999999999982" y2="70.0" stroke="black"/>
<line x1="19.999999999999982" y1="70.0" x2="19.999999999999982" y2="80.0" stroke="black"/>
<line x1="19.999999999999982" y1="80.0" x2="19.999999999999982" y2="90.0" stroke="black"/>
<line x1="19.999999999999982" y1="90.0" x2="9.999999999999982" y2="90.0" stroke="black"/>
<line x1="9.999999999999982" y1="90.0" x2="9.99999999999998" y2="80.0" stroke="black"/>
<line x1="9.99999999999998" y1="80.0" x2="-1.9539925233402755E-14" y2="80.0" stroke="black"/>
<line x1="-1.9539925233402755E-14" y1="80.0" x2="-10.00000000000002" y2="80.0" stroke="black"/>
<line x1="-10.00000000000002" y1="80.0" x2="-10.000000000000021" y2="70.0" stroke="black"/>
<line x1="-10.000000000000021" y1="70.0" x2="-20.00000000000002" y2="70.0" stroke="black"/>
<line x1="-20.00000000000002" y1="70.0" x2="-20.00000000000002" y2="80.0" stroke="black"/>
<line x1="-20.00000000000002" y1="80.0" x2="-20.00000000000002" y2="90.0" stroke="black"/>
<line x1="-20.00000000000002" y1="90.0" x2="-30.00000000000002" y2="90.0" stroke="black"/>
<line x1="-30.00000000000002" y1="90.0" x2="-30.000000000000025" y2="80.0" stroke="black"/>
<line x1="-30.000000000000025" y1="80.0" x2="-40.00000000000003" y2="80.0" stroke="black"/>
<line x1="-40.00000000000003" y1="80.0" x2="-40.00000000000003" y2="70.0" stroke="black"/>
<line x1="-40.00000000000003" y1="70.0" x2="-30.00000000000003" y2="70.0" stroke="black"/>
<line x1="-30.00000000000003" y1="70.0" x2="-30.000000000000032" y2="60.0" stroke="black"/>
<line x1="-30.000000000000032" y1="60.0" x2="-40.00000000000003" y2="60.0" stroke="black"/>
<line x1="-40.00000000000003" y1="60.0" x2="-50.00000000000003" y2="60.0" stroke="black"/>
<line x1="-50.00000000000003" y1="60.0" x2="-50.00000000000003" y2="50.0" stroke="black"/>
<line x1="-50.00000000000003" y1="50.0" x2="-40.00000000000003" y2="50.0" stroke="black"/>
<line x1="-40.00000000000003" y1="50.0" x2="-40.00000000000003" y2="40.0" stroke="black"/>
<line x1="-40.00000000000003" y1="40.0" x2="-30.00000000000003" y2="40.0" stroke="black"/>
<line x1="-30.00000000000003" y1="40.0" x2="-30.000000000000025" y2="50.0" stroke="black"/>
<line x1="-30.000000000000025" y1="50.0" x2="-20.000000000000025" y2="50.0" stroke="black"/>
<line x1="-20.000000000000025" y1="50.0" x2="-20.00000000000003" y2="40.0" stroke="black"/>
<line x1="-20.00000000000003" y1="40.0" x2="-20.000000000000032" y2="30.0" stroke="black"/>
<line x1="-20.000000000000032" y1="30.0" x2="-10.000000000000032" y2="29.999999999999996" stroke="black"/>
<line x1="-10.000000000000032" y1="29.999999999999996" x2="-10.000000000000028" y2="40.0" stroke="black"/>
<line x1="-10.000000000000028" y1="40.0" x2="-2.842170943040401E-14" y2="40.0" stroke="black"/>
<line x1="-2.842170943040401E-14" y1="40.0" x2="-3.0258679629125035E-14" y2="30.0" stroke="black"/>
<line x1="-3.0258679629125035E-14" y1="30.0" x2="9.99999999999997" y2="29.999999999999996" stroke="black"/>
<line x1="9.99999999999997" y1="29.999999999999996" x2="9.999999999999968" y2="19.999999999999996" stroke="black"/>
<line x1="9.999999999999968" y1="19.999999999999996" x2="-3.197442310920451E-14" y2="19.999999999999996" stroke="black"/>
<line x1="-3.197442310920451E-14" y1="19.999999999999996" x2="-10.000000000000032" y2="19.999999999999996" stroke="black"/>
<line x1="-10.000000000000032" y1="19.999999999999996" x2="-10.000000000000034" y2="9.999999999999996" stroke="black"/>
<line x1="-10.000000000000034" y1="9.999999999999996" x2="-3.375077994860476E-14" y2="9.999999999999995" stroke="black"/>
<line x1="-3.375077994860476E-14" y1="9.999999999999995" x2="-3.5587750147325786E-14" y2="-5.329070518200751E-15" stroke="black"/>
</svg>