<svg viewBox="-19.94651592478172 -42.0 38.849447686069624 57.0" xmlns="http://www.w3.org/2000/svg">
<line x1="0" y1="0" x2="1.8369701987210297E-16" y2="-3.0" stroke-width="1" stroke="black"/>
<line x1="1.8369701987210297E-16" y1="-3.0" x2="1.3009772537626334" y2="-5.703231063966275" stroke-width="1" stroke="black"/>
<line x1="1.8369701987210297E-16" y1="-3.0" x2="3.6739403974420594E-16" y2="-6.0" stroke-width="1" stroke="black"/>
<line x1="3.6739403974420594E-16" y1="-6.0" x2="-1.3009772537626325" y2="-8.703231063966275" stroke-width="1" stroke="black"/>
<line x1="3.6739403974420594E-16" y1="-6.0" x2="5.51091059616309E-16" y2="-9.0" stroke-width="1" stroke="black"/>
<line x1="5.51091059616309E-16" y1="-9.0" x2="1.3009772537626336" y2="-11.703231063966275" stroke-width="1" stroke="black"/>
<line x1="1.3009772537626336" y1="-11.703231063966275" x2="3.6455386710190902" y2="-13.574869854094434" stroke-width="1" stroke="black"/>
<line x1="1.3009772537626336" y1="-11.703231063966275" x2="2.601954507525267" y2="-14.40646212793255" stroke-width="1" stroke="black"/>
<line x1="2.601954507525267" y1="-14.40646212793255" x2="2.601954507525267" y2="-17.40646212793255" stroke-width="1" stroke="black"/>
<line x1="2.601954507525267" y1="-14.40646212793255" x2="3.9029317612879" y2="-17.109693191898824" stroke-width="1" stroke="black"/>
<line x1="5.51091059616309E-16" y1="-9.0" x2="7.347880794884119E-16" y2="-12.0" stroke-width="1" stroke="black"/>
<line x1="7.347880794884119E-16" y1="-12.0" x2="1.3009772537626338" y2="-14.703231063966275" stroke-width="1" stroke="black"/>
<line x1="7.347880794884119E-16" y1="-12.0" x2="9.184850993605148E-16" y2="-15.0" stroke-width="1" stroke="black"/>
<line x1="9.184850993605148E-16" y1="-15.0" x2="-1.300977253762632" y2="-17.703231063966275" stroke-width="1" stroke="black"/>
<line x1="9.184850993605148E-16" y1="-15.0" x2="1.1021821192326177E-15" y2="-18.0" stroke-width="1" stroke="black"/>
<line x1="1.1021821192326177E-15" y1="-18.0" x2="-1.3009772537626318" y2="-20.703231063966275" stroke-width="1" stroke="black"/>
<line x1="-1.3009772537626318" y1="-20.703231063966275" x2="-1.3009772537626316" y2="-23.703231063966275" stroke-width="1" stroke="black"/>
<line x1="-1.3009772537626318" y1="-20.703231063966275" x2="-2.6019545075252646" y2="-23.40646212793255" stroke-width="1" stroke="black"/>
<line x1="-2.6019545075252646" y1="-23.40646212793255" x2="-4.946515924781721" y2="-25.27810091806071" stroke-width="1" stroke="black"/>
<line x1="-2.6019545075252646" y1="-23.40646212793255" x2="-3.9029317612878973" y2="-26.109693191898824" stroke-width="1" stroke="black"/>
<line x1="1.1021821192326177E-15" y1="-18.0" x2="1.2858791391047206E-15" y2="-21.0" stroke-width="1" stroke="black"/>
<line x1="1.2858791391047206E-15" y1="-21.0" x2="1.3009772537626345" y2="-23.703231063966275" stroke-width="1" stroke="black"/>
<line x1="1.2858791391047206E-15" y1="-21.0" x2="1.4695761589768236E-15" y2="-24.0" stroke-width="1" stroke="black"/>
<line x1="1.4695761589768236E-15" y1="-24.0" x2="-1.3009772537626314" y2="-26.703231063966275" stroke-width="1" stroke="black"/>
<line x1="1.4695761589768236E-15" y1="-24.0" x2="1.6532731788489265E-15" y2="-27.0" stroke-width="1" stroke="black"/>
</svg>